<svg width="16" height="16" viewBox="0 0 16 16" fill="none" xmlns="http://www.w3.org/2000/svg">
<path d="M12.7688 0.513672H3.2313C1.70899 0.513672 0.470459 1.7522 0.470459 3.27452V12.812C0.470459 14.3343 1.70899 15.5732 3.2313 15.5732H12.7688C14.2911 15.5732 15.53 14.3347 15.53 12.812V3.27452C15.53 1.7522 14.2914 0.513672 12.7688 0.513672ZM8.00004 13.0009C5.26664 13.0009 3.04271 10.777 3.04271 8.04325C3.04271 5.30986 5.26664 3.08592 8.00004 3.08592C10.7338 3.08592 12.9577 5.30986 12.9577 8.04325C12.9577 10.7766 10.7334 13.0009 8.00004 13.0009ZM13.1171 4.1109C12.47 4.1109 11.9438 3.58469 11.9438 2.93797C11.9438 2.29125 12.47 1.76504 13.1171 1.76504C13.7638 1.76504 14.29 2.29125 14.29 2.93797C14.29 3.58469 13.7638 4.1109 13.1171 4.1109Z" fill="#016F86"/>
</svg>
