<svg width="32" height="32" viewBox="0 0 32 32" fill="none" xmlns="http://www.w3.org/2000/svg">
<path d="M16 32C24.8366 32 32 24.8366 32 16C32 7.16344 24.8366 0 16 0C7.16344 0 0 7.16344 0 16C0 24.8366 7.16344 32 16 32Z" fill="#3C80AD"/>
<path d="M10.7693 8.23438C6.73183 8.2599 3.46289 11.5518 3.46289 15.6036C3.46289 19.6714 6.75708 22.9724 10.8165 22.9724C12.7206 22.9724 14.4573 22.245 15.7639 21.0523L15.7637 21.0521H15.7647C16.0327 20.8078 16.2823 20.5435 16.5115 20.2628H15.0053C14.8039 20.0196 14.621 19.7653 14.4568 19.5034H17.0548C17.2134 19.2502 17.3559 18.9873 17.4835 18.7149H14.0284C13.9105 18.4618 13.8081 18.2038 13.7209 17.9408H17.791C18.0368 17.2061 18.1694 16.4199 18.1694 15.6036C18.1694 15.0614 18.1106 14.5339 18.0002 14.0251H13.5049C13.561 13.7631 13.631 13.5046 13.7144 13.2512H17.7865C17.6955 12.9809 17.5896 12.7179 17.4694 12.4622H14.0279C14.152 12.1962 14.2927 11.9383 14.4496 11.6881H17.046C16.8729 11.412 16.6819 11.1482 16.4755 10.8996H15.0279C15.252 10.6351 15.498 10.3863 15.7651 10.1556C14.4589 8.96243 12.7221 8.23458 10.8169 8.23458C10.8003 8.23437 10.7847 8.23438 10.7693 8.23438Z" fill="#931B1D"/>
<path d="M28.0332 15.6059C28.0339 19.6752 24.7436 22.9749 20.6814 22.9762C16.6209 22.9774 13.328 19.6789 13.3268 15.6089V15.6059C13.3255 11.5354 16.6169 8.23539 20.6781 8.23438C24.7391 8.23289 28.0322 11.5316 28.0332 15.6019C28.0332 15.6019 28.0332 15.6037 28.0332 15.6059Z" fill="#F16622"/>
<path d="M28.0332 15.687C28.0339 19.7565 24.7436 23.0568 20.6814 23.0575C16.6209 23.059 13.328 19.7601 13.3268 15.6908V15.687C13.3255 11.6172 16.6169 8.31693 20.6781 8.31592C24.7391 8.31443 28.0322 11.6131 28.0332 15.6831C28.0332 15.6832 28.0332 15.6855 28.0332 15.687Z" fill="#F7981D"/>
<path d="M10.7693 8.31794C6.73183 8.34393 3.46289 11.6351 3.46289 15.6872C3.46289 19.7552 6.75708 23.0564 10.8165 23.0564C12.7206 23.0564 14.4573 22.3286 15.7639 21.1361L15.7637 21.1354H15.7647C16.0327 20.8913 16.2823 20.6278 16.5115 20.3461H15.0053C14.8039 20.1033 14.621 19.8497 14.4568 19.5877H17.0548C17.2134 19.3343 17.3559 19.0706 17.4835 18.7985H14.0284C13.9105 18.5451 13.8081 18.2871 13.7209 18.0246H17.791C18.0368 17.2894 18.1694 16.5035 18.1694 15.6872C18.1694 15.1453 18.1106 14.6175 18.0002 14.1089H13.5049C13.561 13.8472 13.631 13.5882 13.7144 13.3351H17.7865C17.6955 13.0645 17.5896 12.8015 17.4694 12.5456H14.0279C14.152 12.2806 14.2927 12.0216 14.4496 11.7717H17.046C16.8729 11.4959 16.6819 11.2323 16.4755 10.9827H15.0279C15.252 10.7187 15.498 10.4698 15.7651 10.2387C14.4589 9.04573 12.7221 8.31787 10.8169 8.31787C10.8003 8.31794 10.7847 8.31794 10.7693 8.31794Z" fill="#CB2026"/>
<path d="M13.4605 17.5635L13.5589 16.8968C13.5053 16.8968 13.4265 16.9195 13.357 16.9195C13.0846 16.9195 13.0543 16.7745 13.072 16.6671L13.292 15.3062H13.7061L13.8062 14.5682H13.4159L13.4955 14.1099H12.7123C12.6954 14.127 12.25 16.6901 12.25 17.0016C12.25 17.4637 12.5085 17.6695 12.8737 17.6665C13.1591 17.6639 13.3822 17.5848 13.4605 17.5635Z" fill="white"/>
<path d="M13.7089 16.292C13.7089 17.4009 14.4387 17.6646 15.061 17.6646C15.6355 17.6646 15.8879 17.5355 15.8879 17.5355L16.0261 16.7786C16.0261 16.7786 15.5893 16.9727 15.1947 16.9727C14.3541 16.9727 14.5015 16.3442 14.5015 16.3442H16.0928C16.0928 16.3442 16.1951 15.8353 16.1951 15.6282C16.1951 15.1115 15.9379 14.4814 15.0787 14.4814C14.2912 14.4816 13.7089 15.3312 13.7089 16.292ZM15.082 15.1837C15.5236 15.1837 15.442 15.6814 15.442 15.7216H14.5729C14.5726 15.6703 14.6548 15.1837 15.082 15.1837Z" fill="white"/>
<path d="M20.0393 17.5635L20.1795 16.7073C20.1795 16.7073 19.7953 16.9013 19.5317 16.9013C18.9765 16.9013 18.7538 16.4753 18.7538 16.0196C18.7538 15.0929 19.2316 14.5831 19.7639 14.5831C20.1626 14.5831 20.4829 14.8079 20.4829 14.8079L20.6105 13.9772C20.6105 13.9772 20.1358 13.7842 19.7291 13.7842C18.8251 13.7842 17.9454 14.5692 17.9454 16.0461C17.9454 17.0238 18.4206 17.6708 19.3549 17.6708C19.6188 17.6709 20.0393 17.5635 20.0393 17.5635Z" fill="white"/>
<path d="M9.15453 14.4932C8.61768 14.4932 8.20609 14.6657 8.20609 14.6657L8.09266 15.3418C8.09266 15.3418 8.43268 15.2039 8.94583 15.2039C9.23738 15.2039 9.45033 15.2365 9.45033 15.4742C9.45033 15.6182 9.42434 15.6715 9.42434 15.6715C9.42434 15.6715 9.1947 15.6521 9.08809 15.6521C8.41128 15.6521 7.69983 15.9416 7.69983 16.8152C7.69983 17.5029 8.16618 17.661 8.4555 17.661C9.00801 17.661 9.24548 17.302 9.25864 17.3005L9.23285 17.6006H9.92209L10.2298 15.4392C10.2298 14.5227 9.43163 14.4932 9.15453 14.4932ZM9.32252 16.252C9.33744 16.3842 9.23967 17.0031 8.76825 17.0031C8.52518 17.0031 8.46178 16.8167 8.46178 16.7065C8.46178 16.492 8.57825 16.2341 9.15223 16.2341C9.28538 16.2341 9.29976 16.2487 9.32252 16.252Z" fill="white"/>
<path d="M10.9627 17.6444C11.1387 17.6444 12.1468 17.6897 12.1468 16.6472C12.1468 15.6725 11.2138 15.8648 11.2138 15.4732C11.2138 15.279 11.3659 15.2168 11.6438 15.2168C11.7542 15.2168 12.1789 15.2524 12.1789 15.2524L12.2779 14.5592C12.2779 14.5592 12.0031 14.498 11.5559 14.498C10.9761 14.498 10.3887 14.729 10.3887 15.522C10.3887 16.4211 11.3689 16.3302 11.3689 16.7086C11.3689 16.9613 11.0948 16.982 10.8836 16.982C10.5188 16.982 10.1901 16.8564 10.1885 16.8622L10.0842 17.5476C10.1025 17.554 10.3056 17.6444 10.9627 17.6444Z" fill="white"/>
<path d="M26.5243 13.8718L26.3558 14.9218C26.3558 14.9218 26.0609 14.5143 25.5999 14.5143C24.8822 14.5143 24.2844 15.3809 24.2844 16.377C24.2844 17.02 24.603 17.6494 25.2553 17.6494C25.7245 17.6494 25.9839 17.3217 25.9839 17.3217L25.9499 17.6013H26.7113L27.3098 13.8701L26.5243 13.8718ZM26.161 15.92C26.161 16.3341 25.9559 16.8871 25.5316 16.8871C25.2497 16.8871 25.1181 16.6501 25.1181 16.2782C25.1181 15.6703 25.3905 15.2681 25.734 15.2681C26.0162 15.2682 26.161 15.4627 26.161 15.92Z" fill="white"/>
<path d="M4.91491 17.6044L5.39214 14.7875L5.46162 17.6044H6.00123L7.00747 14.7875L6.56157 17.6044H7.36295L7.98069 13.8691H6.74103L5.96922 16.1606L5.92905 13.8691H4.78683L4.16052 17.6044H4.91491Z" fill="white"/>
<path d="M16.978 17.6099C17.2059 16.3116 17.2481 15.2568 17.7923 15.4491C17.8876 14.9468 17.9793 14.7526 18.0828 14.5396C18.0828 14.5396 18.0344 14.5293 17.9317 14.5293C17.5818 14.5293 17.3218 15.0093 17.3218 15.0093L17.391 14.5687H16.6619L16.1741 17.6099H16.978Z" fill="white"/>
<path d="M21.8457 14.4932C21.3088 14.4932 20.8975 14.6657 20.8975 14.6657L20.7844 15.3418C20.7844 15.3418 21.1236 15.2039 21.6373 15.2039C21.9285 15.2039 22.142 15.2365 22.142 15.4742C22.142 15.6182 22.1158 15.6715 22.1158 15.6715C22.1158 15.6715 21.8861 15.6521 21.7787 15.6521C21.1016 15.6521 20.391 15.9416 20.391 16.8152C20.391 17.5029 20.8576 17.661 21.1467 17.661C21.6992 17.661 21.9369 17.302 21.9495 17.3005L21.924 17.6006H22.6137L22.9212 15.4392C22.9215 14.5227 22.1236 14.4932 21.8457 14.4932ZM22.0139 16.252C22.0289 16.3842 21.9316 17.0031 21.4594 17.0031C21.2166 17.0031 21.1537 16.8167 21.1537 16.7065C21.1537 16.492 21.2702 16.2341 21.8431 16.2341C21.9771 16.2341 21.991 16.2487 22.0139 16.252Z" fill="white"/>
<path d="M23.5506 17.6099C23.7788 16.3116 23.821 15.2568 24.3651 15.4491C24.4604 14.9468 24.5521 14.7526 24.6562 14.5396C24.6562 14.5396 24.6069 14.5293 24.5049 14.5293C24.154 14.5293 23.8948 15.0093 23.8948 15.0093L23.9645 14.5687H23.2349L22.7468 17.6097H23.5507L23.5506 17.6099Z" fill="white"/>
</svg>
