<svg width="32" height="32" viewBox="0 0 32 32" fill="none" xmlns="http://www.w3.org/2000/svg">
<path d="M16 32C24.8366 32 32 24.8366 32 16C32 7.16344 24.8366 0 16 0C7.16344 0 0 7.16344 0 16C0 24.8366 7.16344 32 16 32Z" fill="#DADADA"/>
<path d="M23.4536 13.3107C22.7879 13.3107 22.2614 13.4872 21.8587 13.5679L21.7349 14.5799C21.9363 14.4831 22.5711 14.307 23.0977 14.2904C23.6244 14.2744 23.9339 14.3869 23.8255 14.8368C22.2617 14.8368 21.2084 15.1577 20.9917 16.1698C20.6817 17.9047 22.5866 17.8567 23.3455 17.1015L23.2528 17.5189H24.6464L25.2502 14.7557C25.4974 13.5835 24.4293 13.2947 23.4536 13.3107ZM23.5466 16.1377C23.4693 16.507 23.1752 16.6677 22.819 16.6841C22.5093 16.7001 22.2306 16.4264 22.432 16.1053C22.5869 15.8325 23.0206 15.7683 23.2836 15.7683C23.392 15.7683 23.516 15.7683 23.6246 15.7683C23.593 15.8967 23.5774 16.0091 23.5466 16.1377Z" fill="#1A80AD"/>
<path d="M26.4424 12.2183L25.2893 17.5191H26.7048L27.8723 12.2183H26.4424Z" fill="#1A80AD"/>
<path d="M19.9381 12.2344H17.3462L16.1978 17.5191H17.703L18.0913 15.7683H19.162C20.2175 15.7683 21.0866 15.1259 21.3193 14.0334C21.5833 12.7965 20.6831 12.2344 19.9381 12.2344ZM19.8921 14.0334C19.7989 14.4349 19.3952 14.7559 19.0069 14.7559H18.3086L18.6191 13.3104H19.3639C19.7521 13.3106 19.9848 13.6318 19.8921 14.0334Z" fill="#1A80AD"/>
<path d="M9.88071 13.3112C9.2228 13.3112 8.70264 13.4877 8.31987 13.5683L8.19807 14.5802C8.38172 14.4834 9.00877 14.3073 9.529 14.2907C10.0492 14.2747 10.3552 14.3871 10.2629 14.8371C8.7183 14.8371 7.67817 15.1579 7.46393 16.1701C7.15773 17.905 9.03915 17.8569 9.77356 17.1018L9.68207 17.5192H11.0741L11.6706 14.756C11.915 13.584 10.8441 13.2952 9.88071 13.3112ZM9.98786 16.1382C9.91109 16.5075 9.60483 16.6682 9.25366 16.6846C8.94773 16.7006 8.68751 16.4269 8.88656 16.1058C9.03915 15.833 9.46763 15.7688 9.71245 15.7688C9.835 15.7688 9.94188 15.7688 10.0646 15.7688C10.0333 15.8972 10.003 16.0096 9.98786 16.1382Z" fill="#1A5B80"/>
<path d="M12.2768 13.3872H13.6688L13.8935 15.8482L15.2552 13.3872H16.6917L13.3844 19.277H11.8281L12.8452 17.5457L12.2768 13.3872Z" fill="#1A5B80"/>
<path d="M6.41855 12.2349H3.81987L2.66833 17.5196H4.19325L4.56663 15.7688H5.65578C6.69841 15.7688 7.56982 15.1264 7.80323 14.0339C8.06777 12.797 7.18104 12.2349 6.41855 12.2349ZM6.37182 14.0339C6.27858 14.4354 5.88981 14.7564 5.50049 14.7564H4.78479L5.11172 13.3108H5.85854C6.23186 13.3111 6.48073 13.6322 6.37182 14.0339Z" fill="#1A5B80"/>
<path d="M28.1779 12.904V12.2787H27.9447V12.1948H28.5066V12.2787H28.2722V12.904H28.1779Z" fill="#1A5B80"/>
<path d="M28.5994 12.904V12.1948H28.7401L28.9081 12.6966C28.9237 12.7433 28.9346 12.7779 28.9419 12.8009C28.95 12.7754 28.9626 12.7375 28.9793 12.6877L29.1498 12.1948H29.2759V12.904H29.1857V12.3103L28.979 12.904H28.8949L28.6895 12.3004V12.904H28.5994Z" fill="#1A5B80"/>
</svg>
