<svg width="30" height="30" viewBox="0 0 30 30" fill="none" xmlns="http://www.w3.org/2000/svg">
<path fill-rule="evenodd" clip-rule="evenodd" d="M23.1407 19.0939L29.2128 23.1433C29.9981 23.6654 30.2336 24.713 29.7472 25.521L28.2205 28.0586C27.7517 28.8566 26.992 29.442 26.1008 29.6918C25.3349 29.8989 24.5445 30.0022 23.7511 29.9988C20.3036 29.9988 15.2879 28.187 8.55035 21.45C0.0805938 12.9793 -0.607253 7.22961 0.307084 3.89812C0.557184 3.0071 1.14251 2.24748 1.94032 1.77845L4.47945 0.253189C5.28728 -0.232423 6.3342 0.00320626 6.85601 0.788129L10.9054 6.86023C11.4146 7.63104 11.2466 8.66366 10.5195 9.2334L8.24682 11.0016C7.94699 11.2307 7.86169 11.6457 8.04687 11.9745L8.23136 12.3109L8.23137 12.311L8.23138 12.311C8.83931 13.4243 9.59771 14.8131 12.3938 17.6101C15.1899 20.4072 16.5776 21.1641 17.693 21.772L18.0294 21.9575C18.3583 22.1402 18.7715 22.0532 18.9988 21.7535L20.7675 19.4793C21.3372 18.7519 22.3701 18.5842 23.1407 19.0939ZM27.3625 27.5471L28.8858 25.008C29.097 24.6576 28.9948 24.2029 28.6539 23.9767L22.5824 19.9273C22.2479 19.7064 21.8 19.779 21.5525 20.0942L19.7843 22.3674C19.2553 23.0592 18.2981 23.2567 17.5386 22.8308L17.2102 22.6498L17.2089 22.6492C16.0379 22.0104 14.5805 21.2155 11.6815 18.317C8.78249 15.4185 7.98765 13.9607 7.34884 12.7891L7.34813 12.7878L7.16763 12.4599C6.74172 11.7002 6.93926 10.7431 7.63104 10.2142L9.9042 8.44596C10.2196 8.19855 10.2923 7.75043 10.0712 7.41609L8.22491 4.64701L6.02522 1.34451C5.79879 1.0039 5.3444 0.901667 4.99389 1.11257L2.45475 2.63584C1.87804 2.97294 1.454 3.52007 1.27145 4.16263C0.427066 7.23864 1.1264 12.6114 9.25771 20.7427C17.389 28.874 22.7622 29.5734 25.8378 28.729C26.4795 28.5467 27.026 28.1232 27.3625 27.5471ZM25.4978 13.5013C25.4926 8.80971 21.6906 5.00771 16.9991 5.0025C16.723 5.0025 16.4992 4.7787 16.4992 4.50259C16.4992 4.22648 16.723 4.00268 16.9991 4.00268C22.2426 4.00843 26.4919 8.25772 26.4977 13.5013C26.4977 13.7774 26.2739 14.0012 25.9978 14.0012C25.7216 14.0012 25.4978 13.7774 25.4978 13.5013ZM16.9991 8.00241C20.0347 8.00598 22.4947 10.466 22.4983 13.5016C22.4983 13.7777 22.7221 14.0015 22.9982 14.0015C23.2743 14.0015 23.4981 13.7777 23.4981 13.5016C23.4939 9.91398 20.5867 7.0067 16.9991 7.0026C16.723 7.0026 16.4992 7.22639 16.4992 7.5025C16.4992 7.77861 16.723 8.00241 16.9991 8.00241ZM19.4987 13.5014C19.497 12.1216 18.3789 11.0034 16.9991 11.0018C16.723 11.0018 16.4992 10.778 16.4992 10.5019C16.4992 10.2258 16.723 10.002 16.9991 10.002C18.9309 10.0042 20.4963 11.5697 20.4986 13.5014C20.4986 13.7776 20.2747 14.0014 19.9986 14.0014C19.7226 14.0014 19.4987 13.7776 19.4987 13.5014Z" fill="black"/>
</svg>
