<svg width="32" height="32" viewBox="0 0 32 32" fill="none" xmlns="http://www.w3.org/2000/svg">
<path d="M1.68901 3.37777C2.62121 3.37777 3.37691 2.62206 3.37691 1.68986C3.37691 0.757654 2.62121 0.00195312 1.68901 0.00195312C0.7568 0.00195312 0.00109863 0.757654 0.00109863 1.68986C0.00109863 2.62206 0.7568 3.37777 1.68901 3.37777Z" fill="#F3F2F2"/>
<path d="M11.8479 19.0701L13.0722 11.8408H15.0542L13.83 19.0701H11.8479Z" fill="#293688"/>
<path d="M20.8863 12.0275C20.4935 11.881 19.8781 11.7241 19.1095 11.7241C17.1506 11.7241 15.7708 12.7049 15.7589 14.1099C15.748 15.1485 16.7439 15.7278 17.4962 16.0739C18.2678 16.4275 18.5272 16.6544 18.5234 16.9705C18.5186 17.455 17.907 17.6766 17.3371 17.6766C16.5439 17.6763 16.1222 17.5669 15.4712 17.2971L15.2157 17.1819L14.9374 18.8003C15.4005 19.0022 16.2568 19.1772 17.1458 19.1861C19.2293 19.1856 20.5823 18.217 20.5975 16.7161C20.6051 15.8939 20.0769 15.268 18.9332 14.752C18.2402 14.418 17.8158 14.1949 17.8204 13.8559C17.8204 13.5555 18.1798 13.2342 18.9557 13.2342C19.6039 13.2241 20.0735 13.3646 20.4396 13.5111L20.617 13.5945L20.8863 12.0275Z" fill="#293688"/>
<path d="M24.2657 11.8408C23.7908 11.8408 23.4476 11.9858 23.239 12.4565L20.3014 19.0703H22.4L22.808 17.9625H25.3154L25.5483 19.0703H27.414L25.7818 11.841H24.2657L24.2657 11.8408ZM23.3648 16.516C23.5285 16.0997 24.1543 14.4954 24.1543 14.4954C24.1429 14.5144 24.3172 14.0771 24.4172 13.8057L24.5514 14.4287C24.5514 14.4287 24.9306 16.1544 25.0102 16.5162H23.3648V16.516Z" fill="#293688"/>
<path d="M8.23334 16.7964L8.05874 15.8053C7.69699 14.65 6.57426 13.4 5.31616 12.7738L7.0674 19.0701H9.16648L12.3145 11.8408H10.2159L8.23334 16.7964Z" fill="#293688"/>
<path d="M3.16125 11.8403V11.9571C5.64842 12.5553 7.37515 14.0676 8.05875 15.8049L7.34004 12.4573C7.22006 11.9998 6.85649 11.8563 6.42627 11.8404L3.16125 11.8403Z" fill="#F7981D"/>
<path d="M15.9989 31.9995C22.1742 31.9995 27.5286 28.499 30.1957 23.376H1.80237C4.4696 28.499 9.82384 31.9995 15.9989 31.9995Z" fill="#F7981D"/>
<path d="M15.999 0C9.92168 0 4.6359 3.38824 1.92749 8.37897H30.071C27.3622 3.38851 22.0762 0 15.999 0Z" fill="#293688"/>
</svg>
